<?xml version="1.0" encoding="utf-8"?>
<!-- Generator: Adobe Illustrator 21.1.0, SVG Export Plug-In . SVG Version: 6.00 Build 0)  -->
<svg version="1.1" id="Bold" xmlns="http://www.w3.org/2000/svg" xmlns:xlink="http://www.w3.org/1999/xlink" x="0px" y="0px"
	 viewBox="0 0 512 512" style="enable-background:new 0 0 512 512;" xml:space="preserve">
<style type="text/css">
	.st0{fill:#FFFFFF;}
</style>
<path class="st0" d="M500.7,126.5l0.6,4.2c-6.2-22-22.9-38.9-44.1-45.1l-0.4-0.1c-39.9-10.8-200.5-10.8-200.5-10.8
	S96,74.5,55.7,85.5c-21.6,6.3-38.4,23.2-44.4,44.7l-0.1,0.4c-14.9,77.9-15,171.5,0.7,254.9l-0.7-4.2c6.2,22,22.9,38.9,44.1,45.1
	l0.4,0.1c39.9,10.9,200.5,10.9,200.5,10.9s160.2,0,200.5-10.9c21.7-6.3,38.4-23.2,44.5-44.7l0.1-0.4c6.8-36.2,10.7-77.9,10.7-120.5
	c0-1.6,0-3.1,0-4.7c0-1.5,0-3.2,0-4.9C512,208.6,508.1,166.9,500.7,126.5L500.7,126.5z M205,333.9V178.3l133.7,77.9L205,333.9z"/>
</svg>
