<?xml version="1.0" encoding="utf-8"?>
<!-- Generator: Adobe Illustrator 21.1.0, SVG Export Plug-In . SVG Version: 6.00 Build 0)  -->
<svg version="1.1" id="Layer_1" xmlns="http://www.w3.org/2000/svg" xmlns:xlink="http://www.w3.org/1999/xlink" x="0px" y="0px"
	 viewBox="0 0 512 512" style="enable-background:new 0 0 512 512;" xml:space="preserve">
<style type="text/css">
	.st0{fill:#75B73B;}
	.st1{fill:#52891D;}
	.st2{fill:#FFFFFF;}
	.st3{fill:#D1D1D1;}
</style>
<circle class="st0" cx="256" cy="256" r="256"/>
<path class="st1" d="M360.2,151.8c-14.8-3.7-36.7-16.5-50.8-21.7c-55.2-17.2-129.3-3.4-150,60.3c-1.7,1.7-5.2,1.7-6.9,1.7
	c-41.4,48.3-13.8,106.9-17.2,160.3c-1.2,18.8-11.1,35.5-23.8,49.6l107.3,107.2c12.2,1.8,24.6,2.7,37.2,2.7
	c126.4,0,231.5-91.7,252.2-212.2L360.2,151.8z"/>
<g>
	<path class="st2" d="M248.8,108.4c-78,3.7-139.6,68.7-139.4,146.8c0.1,23.8,5.8,46.2,15.9,66.1l-15.6,75.5
		c-0.8,4.1,2.8,7.7,6.9,6.7l74-17.5c19,9.5,40.4,14.9,63,15.3c79.8,1.2,146.3-62.1,148.7-141.8C405.1,174,334.6,104.4,248.8,108.4
		L248.8,108.4z M337.1,335.9c-21.7,21.7-50.5,33.6-81.1,33.6c-17.9,0-35.1-4-51.1-12l-10.3-5.1l-45.4,10.7l9.5-46.4l-5.1-9.9
		c-8.3-16.2-12.5-33.7-12.5-52.1c0-30.6,11.9-59.5,33.6-81.1c21.5-21.5,50.8-33.6,81.1-33.6c30.6,0,59.5,11.9,81.1,33.6
		s33.6,50.5,33.6,81.1C370.7,285.2,358.6,314.5,337.1,335.9L337.1,335.9z"/>
	<path class="st2" d="M327.1,286.6l-28.4-8.1c-3.7-1.1-7.7,0-10.5,2.8l-6.9,7.1c-2.9,3-7.4,3.9-11.2,2.4
		c-13.4-5.4-41.7-30.5-48.9-43.1c-2.1-3.6-1.7-8.2,0.8-11.5l6.1-7.8c2.4-3.1,2.9-7.2,1.3-10.7l-11.9-27c-2.9-6.5-11.1-8.4-16.5-3.8
		c-7.9,6.7-17.3,16.9-18.5,28.2c-2,19.9,6.5,45,38.8,75.1c37.3,34.8,67.1,39.4,86.5,34.7c11-2.7,19.8-13.4,25.4-22.1
		C336.9,296.5,333.9,288.5,327.1,286.6L327.1,286.6z"/>
</g>
<g>
	<path class="st3" d="M356,147.7l-22.2,22.8c1.1,1,2.3,2.1,3.4,3.2c21.7,21.7,33.6,50.5,33.6,81.1c0,30.4-12.1,59.7-33.6,81.1
		c-21.7,21.7-50.5,33.6-81.1,33.6c-17.9,0-35.1-4-51.1-12l-10.3-5.1l-45.4,10.7l0.9-4.6L110,399.8c0.9,2.7,3.7,4.5,6.7,3.8l74-17.5
		c19,9.5,40.4,14.9,63,15.3c79.8,1.2,146.3-62.1,148.7-141.8C403.8,215.4,385.7,175.4,356,147.7z"/>
	<path class="st3" d="M327.1,286.6l-28.4-8.1c-3.7-1.1-7.7,0-10.5,2.8l-6.9,7.1c-2.9,3-7.4,3.9-11.2,2.4
		c-7.8-3.1-20.5-12.8-31.2-22.9L219.2,288c0.7,0.6,1.4,1.3,2.1,1.9c37.3,34.8,67.1,39.4,86.5,34.7c11-2.7,19.8-13.4,25.4-22.1
		C336.9,296.5,333.9,288.5,327.1,286.6z"/>
</g>
</svg>
