<?xml version="1.0" encoding="utf-8"?>
<!-- Generator: Adobe Illustrator 21.1.0, SVG Export Plug-In . SVG Version: 6.00 Build 0)  -->
<svg version="1.1" id="Capa_1" xmlns="http://www.w3.org/2000/svg" xmlns:xlink="http://www.w3.org/1999/xlink" x="0px" y="0px"
	 viewBox="0 0 477.9 477.9" style="enable-background:new 0 0 477.9 477.9;" xml:space="preserve">
<style type="text/css">
	.st0{fill:#FFFFFF;}
</style>
<path class="st0" d="M477.9,229.3c-1.4-62.5-27.1-120.8-72.2-164C360.5,22,301.3-1.1,238.9,0C176.5-1.1,117.3,22,72.2,65.2
	C27.1,108.5,1.4,166.7,0,229.3l0,0.2v0.2c0.3,63.7,27.6,124.3,75,166.7v57.8c0,11.2,7.8,21,18.6,23.2c1.6,0.3,3.2,0.5,4.8,0.5
	c4.3,0,8.6-1.2,12.4-3.6l46.4-29c26.2,9.2,53.5,13.8,81.3,13.8h0.3c1.5,0,3.1,0,4.6,0c60.8,0,118.2-23.1,162.2-65.2
	c45.2-43.3,70.8-101.5,72.2-164l0-0.3L477.9,229.3z M386.2,373.7c-39.8,38.1-92,58.5-147,57.4l-0.3,0c-0.1,0-0.3,0-0.4,0
	c-25.7,0-51-4.5-75.1-13.3c-6-2.2-12.5-1.5-17.9,1.8L103,446.1V393c0-5.9-2.6-11.6-7.1-15.5C53.1,340.3,28.4,286.4,28,229.7
	c1.3-55,23.9-106.2,63.6-144.3c39.8-38.1,92-58.5,147-57.4l0.3,0l0.3,0c55.1-1.1,107.3,19.3,147,57.4c39.7,38,62.3,89.2,63.6,144.1
	C448.5,284.5,425.9,335.7,386.2,373.7z"/>
<path class="st0" d="M286.8,134.8c-14.3,0-27.3,4.5-38.7,13.4c-3.2,2.5-6.2,5.3-9.1,8.3c-2.8-3.1-5.9-5.9-9.1-8.3
	c-11.5-8.9-24.5-13.4-38.7-13.4c-18.9,0-36.3,7.6-49,21.3c-12.4,13.4-19.2,31.7-19.2,51.5c0,42.7,32.7,70.6,78,109.2
	c7.4,6.3,15.9,13.5,24.6,21.2c3.7,3.3,8.5,5,13.4,5c4.9,0,9.7-1.8,13.4-5c8.8-7.7,17.2-14.9,24.6-21.2c45.3-38.6,78-66.5,78-109.2
	c0-19.7-6.8-38-19.2-51.5C323.1,142.4,305.7,134.8,286.8,134.8z M258.8,295.5c-6.1,5.2-12.8,10.9-19.9,17
	c-7.1-6.1-13.8-11.9-19.9-17c-42.5-36.2-68.2-58.1-68.2-87.8c0-25.9,16.9-44.8,40.2-44.8c8,0,15.1,2.5,21.6,7.5
	c6,4.7,10.3,10.6,12.8,14.8c2.8,4.7,8,7.6,13.5,7.6c5.5,0,10.7-2.9,13.5-7.6c2.5-4.2,6.7-10.2,12.8-14.8c6.5-5,13.6-7.5,21.6-7.5
	c23.3,0,40.2,18.8,40.2,44.8C327,237.4,301.3,259.3,258.8,295.5z"/>
</svg>
