<?xml version="1.0" encoding="utf-8"?>
<!-- Generator: Adobe Illustrator 21.1.0, SVG Export Plug-In . SVG Version: 6.00 Build 0)  -->
<svg version="1.1" id="Capa_1" xmlns="http://www.w3.org/2000/svg" xmlns:xlink="http://www.w3.org/1999/xlink" x="0px" y="0px"
	 viewBox="0 0 477.9 477.9" style="enable-background:new 0 0 477.9 477.9;" xml:space="preserve">
<style type="text/css">
	.st0{fill:#FFFFFF;}
</style>
<g>
	<g>
		<path class="st0" d="M238.9,0C107,0,0,107,0,238.9s107,238.9,238.9,238.9s238.9-107,238.9-238.9C477.7,107,370.8,0.1,238.9,0z
			 M238.9,443.7c-113.1,0-204.8-91.7-204.8-204.8S125.8,34.1,238.9,34.1s204.8,91.7,204.8,204.8C443.6,352,352,443.6,238.9,443.7z"
			/>
	</g>
</g>
<g>
	<g>
		<circle class="st0" cx="153.6" cy="204.8" r="34.1"/>
	</g>
</g>
<g>
	<g>
		<circle class="st0" cx="324.3" cy="204.8" r="34.1"/>
	</g>
</g>
<g>
	<g>
		<path class="st0" d="M304.3,296.6c-5.6-7.6-16.3-9.1-23.9-3.5c-0.3,0.2-0.6,0.5-1,0.8l0,0c-24.1,17.6-56.9,17.6-81,0
			c-7.1-6.2-17.9-5.4-24.1,1.8c-6.2,7.1-5.4,17.9,1.8,24.1c0.3,0.3,0.6,0.5,1,0.8c36.5,27.9,87.2,27.9,123.8,0
			C308.4,314.9,309.9,304.2,304.3,296.6z"/>
	</g>
</g>
</svg>
