<?xml version="1.0" encoding="utf-8"?>
<!-- Generator: Adobe Illustrator 21.1.0, SVG Export Plug-In . SVG Version: 6.00 Build 0)  -->
<svg version="1.1" id="Capa_1" xmlns="http://www.w3.org/2000/svg" xmlns:xlink="http://www.w3.org/1999/xlink" x="0px" y="0px"
	 viewBox="0 0 477.9 477.9" style="enable-background:new 0 0 477.9 477.9;" xml:space="preserve">
<style type="text/css">
	.st0{fill:#FFFFFF;}
</style>
<g>
	<path class="st0" d="M444.6,64.9H33.2C15,64.9,0.1,79.7,0.1,97.9v279.1c0,18.2,14.8,33.1,33.1,33.1h239.9l-7.2,44.2
		c-1.4,8.3,1.4,15.8,7.4,20.1c6,4.3,14,4.5,21.4,0.6l51.8-27.2c1.4-0.7,5.4-0.7,6.9,0l51.8,27.2c3.5,1.9,7.2,2.8,10.7,2.8
		c3.9,0,7.6-1.1,10.7-3.4c6-4.3,8.7-11.8,7.4-20.1l-7.2-44.2h18c18.2,0,33.1-14.8,33.1-33.1V97.9C477.7,79.7,462.9,64.9,444.6,64.9z
		 M349.9,353.4c-31.8,0-57.7-25.9-57.7-57.7s25.9-57.7,57.7-57.7s57.7,25.9,57.7,57.7S381.7,353.4,349.9,353.4z M366.5,422.7
		c-9.6-5.1-23.6-5.1-33.3,0L296.6,442l11.6-71c12.3,6.8,26.5,10.8,41.6,10.8c15.1,0,29.3-3.9,41.6-10.8l4.5,27.7c0,0,0,0.1,0,0.1
		l7.1,43.2L366.5,422.7z M449.4,377.1c0,2.6-2.2,4.7-4.7,4.7H422l-5.2-31.6c0-0.1-0.1-0.2-0.1-0.4c12-14.8,19.2-33.6,19.2-54
		c0-47.4-38.6-86-86-86s-86,38.6-86,86c0,20.5,7.2,39.3,19.2,54c0,0.1-0.1,0.2-0.1,0.4l-5.2,31.6c-0.2,0-0.3,0-0.5,0H33.2
		c-2.6,0-4.7-2.2-4.7-4.7V97.9c0-2.6,2.2-4.7,4.7-4.7h411.4c2.6,0,4.7,2.2,4.7,4.7V377.1z"/>
	<path class="st0" d="M394.5,146.5H73.1c-7.8,0-14.2,6.3-14.2,14.2c0,7.8,6.3,14.2,14.2,14.2h321.4c7.8,0,14.2-6.3,14.2-14.2
		C408.7,152.8,402.3,146.5,394.5,146.5z"/>
	<path class="st0" d="M209.2,223.3H73.1c-7.8,0-14.2,6.3-14.2,14.2c0,7.8,6.3,14.2,14.2,14.2h136.1c7.8,0,14.2-6.3,14.2-14.2
		C223.4,229.7,217.1,223.3,209.2,223.3z"/>
</g>
</svg>
