<?xml version="1.0" encoding="utf-8"?>
<!-- Generator: Adobe Illustrator 21.1.0, SVG Export Plug-In . SVG Version: 6.00 Build 0)  -->
<svg version="1.1" id="Capa_1" xmlns="http://www.w3.org/2000/svg" xmlns:xlink="http://www.w3.org/1999/xlink" x="0px" y="0px"
	 viewBox="0 0 477.9 477.9" style="enable-background:new 0 0 477.9 477.9;" xml:space="preserve">
<style type="text/css">
	.st0{fill:#FFFFFF;}
</style>
<g>
	<g>
		<g>
			<path class="st0" d="M293,92.1c18.4-14.8,22.5-30.7,22.8-41.4c0.6-26-19.9-45.1-22.3-47.1c-5.8-5.2-14.7-4.6-19.9,1.2
				c-5.2,5.8-4.6,14.7,1.2,19.9c0.1,0.1,13.1,12.3,12.8,25.4c-0.2,7-4.2,13.6-12.3,20.2c-18.4,14.8-22.5,30.7-22.8,41.4
				c-0.6,26,19.9,45.1,22.3,47.1c2.7,2.4,6,3.6,9.4,3.6c3.9,0,7.7-1.6,10.5-4.7c5.2-5.8,4.7-14.7-1.1-19.9
				c-3.7-3.4-13.2-14.5-12.9-25.6C280.9,105.2,284.9,98.6,293,92.1z"/>
		</g>
	</g>
	<g>
		<g>
			<path class="st0" d="M203.7,92.1c18.4-14.8,22.5-30.7,22.8-41.4c0.6-26-19.9-45.1-22.3-47.1c-5.8-5.2-14.7-4.6-19.9,1.2
				c-5.2,5.8-4.6,14.7,1.2,19.9c0.1,0.1,13.1,12.3,12.8,25.4c-0.2,7-4.2,13.6-12.3,20.2c-18.4,14.8-22.5,30.7-22.8,41.4
				c-0.6,26,19.9,45.1,22.3,47.1c2.7,2.4,6,3.6,9.4,3.6c3.9,0,7.7-1.6,10.5-4.7c5.2-5.8,4.7-14.7-1.1-19.9
				c-3.7-3.4-13.2-14.5-12.9-25.6C191.5,105.2,195.6,98.6,203.7,92.1z"/>
		</g>
	</g>
	<g>
		<g>
			<path class="st0" d="M405.2,229.7h-16.7v-10.3c0-7.8-6.3-14.1-14.1-14.1H15.2c-7.8,0-14.1,6.3-14.1,14.1v74.3
				c0,65.7,36.3,123.4,90.9,156H15.2c-7.8,0-14.1,6.3-14.1,14.1s6.3,14.1,14.1,14.1h359.3c7.8,0,14.1-6.3,14.1-14.1
				s-6.3-14.1-14.1-14.1h-76.8c31-18.5,56.2-45.2,72.1-76.8h35.5c39.5,0,71.6-32.1,71.6-71.6C476.8,261.8,444.7,229.7,405.2,229.7z
				 M360.4,293.7c0,86-74.3,156-165.6,156s-165.6-70-165.6-156v-60.2h331.2L360.4,293.7L360.4,293.7z M405.2,344.7H381
				c4.9-16.2,7.6-33.3,7.6-51v-35.8h16.7c23.9,0,43.4,19.5,43.4,43.4S429.2,344.7,405.2,344.7z"/>
		</g>
	</g>
	<g>
		<g>
			<path class="st0" d="M114.3,92.1c18.4-14.8,22.5-30.7,22.8-41.4c0.6-26-19.9-45.1-22.3-47.1C109-1.6,100.1-1.1,95,4.7
				c-5.2,5.8-4.6,14.7,1.2,19.9c0.1,0.1,13.1,12.3,12.8,25.4c-0.2,7-4.2,13.6-12.3,20.2C78.3,85,74.1,100.9,73.9,111.6
				c-0.6,26,19.9,45.1,22.3,47.1c2.7,2.4,6,3.6,9.4,3.6c3.9,0,7.7-1.6,10.5-4.7c5.2-5.8,4.6-14.7-1.2-19.9
				c-0.1-0.1-13.1-12.3-12.8-25.4C102.2,105.3,106.2,98.7,114.3,92.1z"/>
		</g>
	</g>
</g>
</svg>
