<?xml version="1.0" encoding="utf-8"?>
<!-- Generator: Adobe Illustrator 21.1.0, SVG Export Plug-In . SVG Version: 6.00 Build 0)  -->
<svg version="1.1" id="Capa_1" xmlns="http://www.w3.org/2000/svg" xmlns:xlink="http://www.w3.org/1999/xlink" x="0px" y="0px"
	 viewBox="0 0 30 30" style="enable-background:new 0 0 30 30;" xml:space="preserve">
<style type="text/css">
	.st0{fill:#E30016;}
</style>
<g>
	<g>
		<g>
			<path class="st0" d="M7.1,10.3c1.1,0.9,1.7,2.2,2,3.5l0.3,1.9c0.1,0.3,0.3,0.5,0.6,0.5h9.9c0.3,0,0.6-0.2,0.6-0.5l0.3-1.9
				c0.2-1.4,0.9-2.6,2-3.5c0.1-0.1,0.2-0.3,0.2-0.5c0-0.2-0.1-0.4-0.2-0.5c-0.5-0.4-1-0.6-1.6-0.6h-5.6V7.5h3.1
				c1.4,0,2.5-1.1,2.5-2.5V2.5c0-1.4-1.1-2.5-2.5-2.5h-7.5C9.9,0,8.7,1.1,8.7,2.5V5c0,1.4,1.1,2.5,2.5,2.5h3.1v1.2H8.7
				C8.2,8.7,7.6,9,7.2,9.3C7,9.4,6.9,9.6,6.9,9.8C6.9,10,7,10.2,7.1,10.3z"/>
			<path class="st0" d="M26.9,10c-2.4,0-4.4,1.7-4.8,4l-0.6,3.5l-13.1,0L7.9,14c-0.4-2.3-2.4-4-4.8-4c-1,0-1.9,0.8-1.9,1.9
				s0.8,1.9,1.9,1.9c0.5,0,1,0.4,1.1,0.9l0.6,3.5c0.3,1.8,1.9,3.1,3.7,3.1h5.8l-0.4,3.8c-2.7,0.2-5.2,1-5.2,2.4
				C8.7,29.2,12,30,15,30s6.3-0.8,6.3-2.5c0-1.5-2.5-2.3-5.2-2.4l-0.4-3.8h5.8c1.8,0,3.4-1.3,3.7-3.1l0.6-3.5
				c0.1-0.5,0.5-0.9,1.1-0.9c1,0,1.9-0.8,1.9-1.9C28.7,10.8,27.9,10,26.9,10z"/>
		</g>
	</g>
</g>
</svg>
