<?xml version="1.0" encoding="utf-8"?>
<!-- Generator: Adobe Illustrator 21.1.0, SVG Export Plug-In . SVG Version: 6.00 Build 0)  -->
<svg version="1.1" id="Capa_1" xmlns="http://www.w3.org/2000/svg" xmlns:xlink="http://www.w3.org/1999/xlink" x="0px" y="0px"
	 viewBox="0 0 30 30" style="enable-background:new 0 0 30 30;" xml:space="preserve">
<style type="text/css">
	.st0{fill:#E30016;}
</style>
<g>
	<path class="st0" d="M15,2.5C8.1,2.5,2.5,8.1,2.5,15S8.1,27.5,15,27.5S27.5,21.9,27.5,15S21.9,2.5,15,2.5z M22,21.3
		c0,0.4-0.4,0.8-0.8,0.8C13.9,22,8,16.1,8,8.8C8,8.3,8.3,8,8.8,8h2.9c0.4,0,0.8,0.4,0.8,0.8c0,1.3,0.3,2.6,0.9,3.8
		c0.1,0.2,0.1,0.4,0,0.6c-0.1,0.2-0.2,0.4-0.4,0.4l-1.2,0.6c1,1.7,2.4,3.1,4.1,4.1l0.6-1.2c0.1-0.2,0.3-0.3,0.4-0.4s0.4-0.1,0.6,0
		c1.2,0.6,2.5,0.9,3.8,0.9c0.4,0,0.8,0.4,0.8,0.8L22,21.3L22,21.3z"/>
</g>
</svg>
