<?xml version="1.0" encoding="utf-8"?>
<!-- Generator: Adobe Illustrator 21.1.0, SVG Export Plug-In . SVG Version: 6.00 Build 0)  -->
<svg version="1.1" id="Capa_1" xmlns="http://www.w3.org/2000/svg" xmlns:xlink="http://www.w3.org/1999/xlink" x="0px" y="0px"
	 viewBox="0 0 30 30" style="enable-background:new 0 0 30 30;" xml:space="preserve">
<style type="text/css">
	.st0{fill:#E30016;}
</style>
<g>
	<path class="st0" d="M15,2.5C8.1,2.5,2.5,8.1,2.5,15S8.1,27.5,15,27.5S27.5,21.9,27.5,15S21.9,2.5,15,2.5z M20.9,21.5
		c-0.2,0.2-0.5,0.3-0.7,0.3s-0.5-0.1-0.7-0.3l-5.2-5.2c-0.2-0.2-0.3-0.5-0.3-0.7V8.8c0-0.6,0.5-1,1-1c0.6,0,1,0.5,1,1v6.3l4.9,4.9
		C21.4,20.4,21.4,21.1,20.9,21.5z"/>
</g>
</svg>
