<?xml version="1.0" encoding="utf-8"?>
<!-- Generator: Adobe Illustrator 21.1.0, SVG Export Plug-In . SVG Version: 6.00 Build 0)  -->
<svg version="1.1" id="Capa_1" xmlns="http://www.w3.org/2000/svg" xmlns:xlink="http://www.w3.org/1999/xlink" x="0px" y="0px"
	 viewBox="0 0 30 30" style="enable-background:new 0 0 30 30;" xml:space="preserve">
<style type="text/css">
	.st0{fill:#E30016;}
</style>
<g>
	<g>
		<g>
			<path class="st0" d="M15,7.3c-1.9,0-3.4,1.5-3.4,3.4c0,1.9,1.5,3.4,3.4,3.4c1.9,0,3.4-1.5,3.4-3.4C18.4,8.8,16.9,7.3,15,7.3z"/>
		</g>
	</g>
	<g>
		<g>
			<path class="st0" d="M15,0.5C9.4,0.5,4.8,5.1,4.8,10.7c0,1.9,0.5,3.8,1.5,5.4l8.1,13c0.3,0.5,1.1,0.5,1.5,0l7.9-13.2
				c0.9-1.6,1.4-3.4,1.4-5.2C25.2,5.1,20.6,0.5,15,0.5z M15,15.8c-2.9,0-5.1-2.3-5.1-5.1c0-2.8,2.3-5.1,5.1-5.1s5.1,2.3,5.1,5.1
				C20.1,13.5,17.9,15.8,15,15.8z"/>
		</g>
	</g>
</g>
</svg>
