<?xml version="1.0" encoding="utf-8"?>
<!-- Generator: Adobe Illustrator 21.1.0, SVG Export Plug-In . SVG Version: 6.00 Build 0)  -->
<svg version="1.1" id="Layer_1" xmlns="http://www.w3.org/2000/svg" xmlns:xlink="http://www.w3.org/1999/xlink" x="0px" y="0px"
	 viewBox="0 0 512 512" style="enable-background:new 0 0 512 512;" xml:space="preserve">
<style type="text/css">
	.st0{fill:#E30016;}
</style>
<g id="_x30_13---Hair-Dye">
	<path id="Shape" class="st0" d="M279,74.9c-2.1-2.2-5.3-3.1-8.3-2.3c-3,0.8-5.3,3.1-6.1,6.1c-0.8,3,0.1,6.2,2.3,8.3l37.9,37.9
		c-1.6,5.9,0,12.1,4.4,16.4c15,15,26.3,28.5,52.1,31.6c19.1,1.8,37,9.9,50.9,23.2l41.8,41.8c8.8,8.4,21.4,11.5,33.2,8.1
		c11.7-3.4,20.7-12.8,23.6-24.6c2.9-11.8-0.7-24.3-9.5-32.8l-40.8-40.8c-13.2-13.9-21.4-31.8-23.1-50.9c-3.2-26.5-18-38.5-31.6-52.1
		c-4.3-4.3-10.6-5.9-16.4-4.3L351.5,2.5c-3.3-3.2-8.7-3.2-12,0.1c-3.3,3.3-3.3,8.6-0.1,12l36.2,36.2l-12.1,12.1l-36.2-36.2
		c-3.3-3.2-8.7-3.2-12,0.1c-3.3,3.3-3.3,8.6-0.1,12l36.2,36.2L339.4,87l-36.2-36.2c-3.3-3.2-8.7-3.2-12,0.1c-3.3,3.3-3.3,8.6-0.1,12
		L327.3,99l-12.1,12.1L279,74.9z M420.4,98.9c2.2,22.9,12.1,44.4,28,60.9l40.8,40.8c6.7,6.4,7.5,16.9,1.9,24.2
		c-3.2,3.5-7.6,5.5-12.3,5.7c-4.7,0.2-9.3-1.5-12.7-4.7l-41.8-41.8c-16.6-16-38-25.8-60.9-28c-20.1-2.4-29-13.7-42.1-26.7l72.4-72.4
		C407.2,70.3,418,78.8,420.4,98.9L420.4,98.9z"/>
	<path id="Shape_1_" class="st0" d="M385.8,350.3c-10.3-29.9,2.9-70.3,6.6-136.6c0.2-3-1.3-6-3.9-7.6c-2.6-1.7-5.8-1.8-8.5-0.5
		s-4.5,4.1-4.7,7.2c-3.5,64.7-16.5,104.4-7,138.8c-35.1,3.2-78.1,12-78.1,32.5c0.7,7.1,5.1,13.3,11.6,16.2l4.2,20.9
		c-10.2,1.4-21.2,2.6-33,3.4v-59c17.9-19.1,30.9-42.3,37.8-67.6c13.7-3.6,39.2-16.1,39.2-59.3c0-20-4.6-32-14.1-36.8
		c-4.7-2.3-10.1-2.7-15.1-1.1c0-5.4-0.2-10.8-0.6-15.9c-0.2-2-1-3.9-2.4-5.4c-32.9-33.2-47.1-34.4-108.5-34.4
		c-40.9,0-56.2-23.3-61.7-37.3c-1-2.5-3.1-4.4-5.7-5.1s-5.4-0.2-7.5,1.5c-24.4,18.8-36.4,50.3-36.7,96.5c-5-1.6-10.4-1.2-15.1,1.1
		c-9.5,4.8-14.1,16.8-14.1,36.8c0,43,25.4,55.6,39,59.2c6.8,25.5,19.9,48.9,38.1,68v58.7C58,418.1,35.8,398.9,24.1,385.7
		c56.3-26.9,9.9-135.5,18.2-221.3c8.4-87.1,81.4-91.1,103.7-90.3c1.8,0.2,3.7-0.2,5.3-1C187.1,55.3,227.2,48,267,52.4
		c3,0.3,6-1,7.8-3.4c1.8-2.5,2.1-5.7,0.9-8.5c-1.2-2.8-3.9-4.7-6.9-5c-42.4-4.5-85.3,3-123.6,21.6C92.3,55.7,33,82.5,25.3,162.8
		c-8.6,89.6,37.9,197.7-17,210.4c-3.7,0.2-6.8,2.8-7.8,6.4c-1,3.6,0.5,7.4,3.6,9.4c13.9,12.8,24.2,44.5,142.2,52.8
		c3,11.3,13.2,19.1,24.8,19.1h76.3c11.6,0,21.8-7.9,24.6-19.2c13.4-0.9,25.9-2.2,37.3-3.8c7.8,38.8,6.5,28.2,6.5,48.6
		c0,14.1,11.5,25.6,25.6,25.6h119.5c14.1,0,25.6-11.5,25.6-25.6c0-21.6-2.3-4.8,14-86.2c6.5-3,10.9-9.1,11.6-16.2
		C512,353.2,417.1,348.8,385.8,350.3L385.8,350.3z M328.1,217c0.2,0.1,4.7,2.6,4.7,21.6c0,22.8-8.5,33.8-17.5,39.1
		c3.3-19.3,5.1-38.9,5.2-58.5C324.5,216.9,327.1,216.6,328.1,217L328.1,217z M85.3,238.6c0-19,4.5-21.5,4.7-21.6
		c0.9-0.5,3.6-0.1,7.5,2.2c0.1,19.6,1.8,39.2,5.1,58.5C93.8,272.4,85.3,261.4,85.3,238.6L85.3,238.6z M132.9,317.6
		c-15.3-32.6-18.4-68.1-18.4-114.7c0-36,7.3-61.6,22.3-78c9.5,16,30.2,37.3,72.2,37.3c59.1,0,67.9,0.9,94.2,27.1
		c0.3,4.4,0.4,9,0.4,13.7c0,46.5-3.1,81.9-18.6,114.7c-17.9,38.2-43.5,57.5-76,57.5C176.3,375.1,150.6,355.8,132.9,317.6
		L132.9,317.6z M247.4,443.8h-76.3c-2.5,0-4.8-1-6.5-2.8s-2.4-4.3-2.1-6.8c0-0.4-0.1,6.1-0.1-54.9c28.7,17.4,64.7,17.3,93.4-0.2
		v56.1c0,2.3-0.8,4.4-2.4,6.1C251.8,442.9,249.7,443.8,247.4,443.8L247.4,443.8z M401.1,366.9c52,0,87.3,10.8,93.4,17.1
		c-6.1,6.3-41.4,17.1-93.4,17.1s-87.3-10.8-93.4-17.1C313.8,377.7,349.1,366.9,401.1,366.9z M469.3,486.4c0,4.7-3.8,8.5-8.5,8.5
		H341.3c-4.7,0-8.5-3.8-8.5-8.5v-8.5h85.3c4.7,0,8.5-3.8,8.5-8.5c0-4.7-3.8-8.5-8.5-8.5h-86.9c-5.5-27.7,8.8,44.1-10.5-52.6
		c52.8,13.1,107.9,13.1,160.7,0C467,480.1,469.3,462.5,469.3,486.4L469.3,486.4z"/>
</g>
</svg>
