<?xml version="1.0" encoding="utf-8"?>
<!-- Generator: Adobe Illustrator 21.1.0, SVG Export Plug-In . SVG Version: 6.00 Build 0)  -->
<svg version="1.1" id="Layer_1" xmlns="http://www.w3.org/2000/svg" xmlns:xlink="http://www.w3.org/1999/xlink" x="0px" y="0px"
	 viewBox="0 0 512 512" style="enable-background:new 0 0 512 512;" xml:space="preserve">
<style type="text/css">
	.st0{fill:#E30016;}
</style>
<g id="_x30_50---Lip-Filler" transform="translate(0 -1)">
	<path id="Shape" class="st0" d="M470,139.1c-57.9-41.4-49.7-61.3-101.3-112.9C330.1-12.4,283,1.7,258.4,13.6
		c-9.6,4.6-20.8,4.6-30.4,0c-24.6-11.8-71.7-25.9-110.3,12.7c-51.9,51.8-43,71.2-101.3,112.9c-2.9,2.1-4.2,5.8-3.2,9.3
		c0.7,2.3-3.9-3.6,87,105.5c28.8,33.8,69.3,55.5,113.3,60.7l66.6,66.6c41.9,83.9,34.6,69.5,36.2,71.9c1.3,2-5.6-5.1,54.3,54.8
		c3.2,3.2,7.5,5,12.1,5h96.6c6.9,0,13.1-4.2,15.8-10.5c2.6-6.4,1.2-13.7-3.7-18.6C380.1,372.7,390.4,382.6,388.2,381.2
		c-2.4-1.6,12,5.8-71.9-36.2L284,312.8c39.9-7.1,76.1-27.9,102.3-58.9c93-111.7,86.2-102.9,87-105.5
		C474.3,144.9,473,141.2,470,139.1L470,139.1z M129.8,38.3c29.6-29.6,65.7-21.5,90.9-9.4c14.3,6.9,30.9,6.9,45.2,0
		c25.1-12.1,61.2-20.3,90.8,9.4c43.2,43.2,43.6,65.2,82.6,98.5c-28.3-1.9-55.7-10.6-79.9-25.4c-19-12.6-40.3-36.2-69-36.2
		c-12.7,0.6-25.2,3.1-37.1,7.5c-6.5,2-13.6,2-20.1,0c-42.8-13.5-56.5-10.3-97.8,22.7c-22.9,19-58.2,28.8-88.2,31.4
		C85.5,104.1,86.9,81.2,129.8,38.3L129.8,38.3z M302.9,94.3c12.9,5.5,24.7,13.2,35.1,22.6c-11.4,4-23.2,6.8-35.1,8.4V94.3z
		 M285.9,127.2c-10,0.9-21.3,1.5-34.1,1.7v-28.5c11.2-3.4,22.6-6,34.1-8.1V127.2z M234.7,128.9c-12.8-0.2-24.2-0.8-34.1-1.7V92.4
		c11.5,2,22.9,4.7,34.1,8.1V128.9z M183.5,125.2c-12-1.6-23.7-4.4-35.1-8.4c10.4-9.4,22.3-17,35.1-22.6V125.2z M131.8,128.3
		c46.9,23.9,175.5,24,222.6,0.1c16.3,9.6,34,16.5,52.4,20.6c-80.8,64.7-246.4,64.9-327.4-0.1C97.9,144.9,115.6,137.9,131.8,128.3
		L131.8,128.3z M382.6,495.9l-47.2-47.3l48.3-48.3l12.1,12.1l-14.4,14.3c-2.4,2.4-3.2,6.1-1.8,9.3c1.3,3.2,4.4,5.3,7.9,5.3
		c4.6,0,5.1-1.6,20.4-16.8l12,12.1l-14.3,14.3c-2.4,2.4-3.2,6.1-1.8,9.3c1.3,3.2,4.4,5.3,7.9,5.3c4.7,0,5.4-1.9,20.4-16.8l12.1,12.1
		L429.6,475c-2.4,2.4-3.2,6.1-1.8,9.3c1.3,3.2,4.4,5.3,7.9,5.3c4.7,0,5.4-1.9,20.4-16.8l23.2,23.2L382.6,495.9z M325.6,434.2
		l-28.2-56.3l15.4-15.4l56.3,28.2L325.6,434.2z M287.1,364.2L184.5,261.6c-1.6-1.6-2.5-3.8-2.5-6c0-3.5,2.1-6.6,5.3-7.9
		c3.2-1.3,6.9-0.6,9.3,1.8l102.6,102.6L287.1,364.2z M373.2,243c-26.4,30.9-63.6,50.6-104,55l-60.5-60.5c-7.4-7.2-18.3-9.3-27.8-5.4
		c-9.5,3.9-15.8,13.2-15.9,23.5c0,6.8,2.7,13.3,7.5,18.1l19.1,19.1c-30.6-8.1-57.9-25.5-78.3-49.7l-73.8-88.6
		c5.3-0.3,11.7-0.9,18.6-1.7c86,82.4,284.4,82.5,370.4,0c7,0.9,13.2,1.4,18.6,1.7L373.2,243z"/>
	<path id="Shape_1_" class="st0" d="M145.5,68.4c2,1,4.4,1.2,6.6,0.5c2.2-0.7,3.9-2.3,4.9-4.3c5.9-11.8,26.1-12.3,26.5-12.3
		c4.7,0,8.5-3.8,8.5-8.5s-3.8-8.5-8.5-8.5c-1.3,0-31,0.2-41.8,21.8c-1,2-1.2,4.4-0.5,6.5C141.9,65.6,143.5,67.4,145.5,68.4z"/>
</g>
</svg>
