<?xml version="1.0" encoding="utf-8"?>
<!-- Generator: Adobe Illustrator 21.1.0, SVG Export Plug-In . SVG Version: 6.00 Build 0)  -->
<svg version="1.1" id="Layer_1" xmlns="http://www.w3.org/2000/svg" xmlns:xlink="http://www.w3.org/1999/xlink" x="0px" y="0px"
	 viewBox="0 0 512 512" style="enable-background:new 0 0 512 512;" xml:space="preserve">
<style type="text/css">
	.st0{fill:#E30016;}
</style>
<g id="_x30_25---Clean-Face" transform="translate(-1)">
	<path id="Shape" class="st0" d="M17.1,234.7c0,62.1,37.9,78.2,55.9,82.3c5,17.5,11.9,34.4,20.5,50.3c-9,11.1-22.7,17.3-37,16.6
		c-4.7,0-8.5,3.8-8.5,8.5s3.8,8.5,8.5,8.5c50.3,0,51.2,57.3,51.2,59.7v0.1c0,4.7,3.9,8.5,8.6,8.5c4.7,0,8.5-3.9,8.5-8.6
		c0.4-13.8,4.2-27.2,11.3-39c23.1,20,52.7,30.8,83.3,30.5c44.6,0,81.6-20.4,110.3-60.4c8.1,1.3,16.5,0.7,24.4-1.5
		c13,22.5,39.8,33,64.6,25.2c24.8-7.7,40.9-31.6,38.8-57.5c18,2.2,35.1-8.5,40.9-25.7c5.8-17.2-1.2-36.1-16.8-45.3
		c4.8-13.7-1-28.9-13.7-35.9c-12.7-7-28.6-3.9-37.7,7.5c-9.1,11.3-8.6,27.6,1,38.4c-3.3,4.4-5.6,9.4-6.8,14.8
		c-7-3.1-14.5-4.7-22.2-4.7c-12.1,0-8.4,3-11.2-2.2c14.8-11.1,29.5-31.9,29.5-70.4c0-21.9-3.9-48.8-25.5-51.8
		c30.7-47.5,42.9-104.6,34.4-160.6L426,6.7c-0.9-3.9-4.4-6.7-8.4-6.7h-398c-4,0-7.5,2.8-8.3,6.7L7.7,22.9
		c-8.3,55.8,4,112.7,34.6,160C20.9,186.2,17.1,213,17.1,234.7L17.1,234.7z M34.2,234.7c0-27.2,6.6-33.1,8.6-34.2
		c4.2-2.4,11.9,1,15.5,3.5c0.3,31.5,3.6,62.8,9.7,93.7C52.9,291.4,34.2,275.4,34.2,234.7z M116.2,422.2
		c-5.4-12.3-14.4-22.7-25.8-29.6c11.4-7.1,20.3-17.4,25.8-29.6c5.4,12.3,14.4,22.7,25.8,29.6C130.7,399.6,121.7,409.9,116.2,422.2z
		 M219.3,435.2c-26.2,0.3-51.5-8.9-71.5-25.8c8.3-5.7,18.1-8.6,28.2-8.3c4.7,0,8.5-3.8,8.5-8.5s-3.8-8.5-8.5-8.5
		c-50.3,0-51.2-57.3-51.2-59.7v-0.1c0-4.7-3.9-8.5-8.6-8.5c-4.7,0-8.5,3.9-8.5,8.6c-0.2,8.4-1.7,16.8-4.4,24.7
		c-22.4-46.9-27.6-100.6-28.1-153.6c20.5-37.2,45.9-71.5,75.5-102c20.7,12.3,44.5,18.4,68.6,17.8c41.5,0,68.4,0.3,88.5,5.6
		c21.5,25.1,40.1,52.5,55.7,81.6c-0.1,26.1-2.1,52.1-6.1,77.9c-29.9-10.4-62.8,4.4-74.8,33.7c-12,29.3,1,62.9,29.6,76.5
		C287.3,418.7,256.2,435.2,219.3,435.2L219.3,435.2z M163.3,81.1c16.9-15.9,35.4-30.1,55.3-42.2c25.9,16,49.6,35.3,70.6,57.4
		C234.7,90.4,200.2,101.5,163.3,81.1z M295.4,332.8c0-23.6,19.1-42.7,42.7-42.7c23.6,0,42.7,19.1,42.7,42.7s-19.1,42.7-42.7,42.7
		C314.5,375.4,295.4,356.4,295.4,332.8z M453.3,264.5c7.1,0,12.8,5.7,12.8,12.8s-5.7,12.8-12.8,12.8s-12.8-5.7-12.8-12.8
		S446.2,264.5,453.3,264.5z M440.5,320c0-5.1,1.9-10.1,5.2-13.9c8.9,2.5,18.4,0.6,25.6-5.1c6.9,3.4,11.5,10.2,11.9,17.8
		c0.4,7.7-3.3,15-9.8,19.1c-6.5,4.1-14.7,4.4-21.4,0.8c-2.8-5.8-6.6-11.1-11.2-15.6C440.7,322.1,440.5,321,440.5,320L440.5,320z
		 M440.5,362.7c0,17-11.3,32-27.6,36.8c-16.3,4.8-33.9-1.8-43.1-16.1c19.9-12.4,30.7-35.4,27.4-58.7c10.9-1.4,22,1.9,30.3,9.2
		C435.7,341.1,440.5,351.6,440.5,362.7L440.5,362.7z M403.3,234.7c0,26.3-7.6,45.3-22.5,56.6c-2.4-2.4-4.9-4.7-7.7-6.7
		c4.6-26.9,7-54,7.2-81.3c4.1-2.3,10.5-5.1,14.4-2.9C396.8,201.6,403.3,207.4,403.3,234.7z M410.8,17.1
		c11.5,57.8-1.7,117.8-36.3,165.5C330.5,104.6,266,44.9,214.9,17.1H410.8z M26.5,17.1h116.4c-19,12.6-36,28.1-50.3,45.9
		c-2.9,3.7-2.3,9.1,1.3,12c3.7,2.9,9.1,2.3,12-1.3C124.9,50,148.9,31,176.2,17.8c8.7,3.4,17.2,7.3,25.4,11.6
		C130,75.4,84.2,144.3,62.8,182.6C28.1,134.9,14.9,74.9,26.5,17.1L26.5,17.1z"/>
	<path id="Shape_1_" class="st0" d="M120,185.5c8.9-4.5,19.2-5.2,28.7-2l33.1,11c4.5,1.5,9.3-0.9,10.8-5.4s-0.9-9.3-5.4-10.8
		l-33.1-11c-13.7-4.6-28.7-3.5-41.7,3c-2.8,1.3-4.6,4.1-4.8,7.1c-0.2,3.1,1.3,6,3.8,7.7C114,186.7,117.3,186.9,120,185.5L120,185.5z
		"/>
	<path id="Shape_2_" class="st0" d="M252.7,194.9c2,0,0,0.5,35.8-11.5c9.4-3.2,19.8-2.5,28.7,2c2.7,1.4,6,1.2,8.6-0.5
		c2.6-1.7,4-4.6,3.8-7.7s-2-5.8-4.8-7.1c-12.9-6.5-28-7.6-41.7-3l-33.1,11c-4,1.3-6.4,5.3-5.7,9.4
		C245,191.8,248.6,194.9,252.7,194.9L252.7,194.9z"/>
	<path id="Shape_3_" class="st0" d="M184,227.7c-1.5-4.5-6.3-6.8-10.8-5.3c-0.3,0.1-29.4,9.6-51.9-7.3c-3.4-2.5-8.1-2.2-11.1,0.8
		c-3,3.1-6.9,5.2-11.1,6.1c-4.7,0-8.5,3.8-8.5,8.5s3.8,8.5,8.5,8.5c6.4-0.3,12.5-2.6,17.6-6.5c1.3,0.8,2.6,1.5,3.9,2.1
		c-1.1,1.7-2.6,3.2-4.4,4.4c-4.7,0-8.5,3.8-8.5,8.5c0,10.5,15.8,14.5,29.6-7c13.7,2.8,28,2.1,41.4-2
		C183.1,236.9,185.5,232.1,184,227.7L184,227.7z"/>
	<path id="Shape_4_" class="st0" d="M315.9,215c-22.5,16.9-51.6,7.4-51.8,7.3c-4.4-1.5-9.2,0.9-10.8,5.3c-1.5,4.4,0.8,9.2,5.2,10.8
		c13.4,4.1,27.6,4.8,41.4,2c4.3,6.7,11.8,15.5,21.1,15.5c4.8,0,8.6-3.8,8.7-8.5c0-2.2-0.8-4.4-2.4-6c-1.6-1.6-3.7-2.5-6-2.5
		c-1.9-1.1-3.5-2.6-4.7-4.4c1.3-0.7,2.6-1.3,3.8-2.1c5.1,3.9,11.2,6.1,17.6,6.5c4.7,0,8.5-3.8,8.5-8.5s-3.8-8.5-8.5-8.5
		c-4.2-0.8-8.1-3-11-6C324,212.8,319.3,212.5,315.9,215L315.9,215z"/>
	<path id="Shape_5_" class="st0" d="M188.3,297.2c18.4,12.3,42.3,12.3,60.7,0c2.5-1.7,4-4.6,3.8-7.7c-0.2-3-2-5.7-4.7-7.1
		c-2.7-1.4-6-1.1-8.5,0.6c-12.6,8.4-29.1,8.4-41.7,0c-3.9-2.6-9.2-1.6-11.8,2.4C183.3,289.3,184.3,294.6,188.3,297.2L188.3,297.2z"
		/>
	<path id="Shape_6_" class="st0" d="M258.7,337.9c-5.7-1.3-11.3-3.3-16.5-6.1c-22.2-10.1-24.9-10.1-47.1,0
		c-5.2,2.7-10.8,4.8-16.5,6.1c-2.9-0.2-5.7,0.7-7.8,2.7s-3.3,4.7-3.4,7.5c0,12,24.1,27.3,51.2,27.3s51.2-15.3,51.2-27.3
		c0-2.9-1.2-5.6-3.3-7.5C264.4,338.7,261.6,337.7,258.7,337.9L258.7,337.9z M192,351.8c8.5-4.3,17.5-7.8,26.6-10.5
		c9.2,2.7,18.1,6.2,26.7,10.5C228.6,360.6,208.6,360.6,192,351.8L192,351.8z"/>
	<path id="Shape_7_" class="st0" d="M227.1,392.5h-17.1c-4.7,0-8.5,3.8-8.5,8.5s3.8,8.5,8.5,8.5h17.1c4.7,0,8.5-3.8,8.5-8.5
		S231.8,392.5,227.1,392.5z"/>
	<circle id="Oval" class="st0" cx="73.5" cy="93.9" r="8.5"/>
	<path id="Shape_8_" class="st0" d="M508.7,452.3c0-23.6-19.1-42.7-42.7-42.7c-23.6,0-42.7,19.1-42.7,42.7
		c0,23.6,19.1,42.7,42.7,42.7C489.6,494.9,508.7,475.8,508.7,452.3z M440.5,452.3c0-14.1,11.5-25.6,25.6-25.6
		c14.1,0,25.6,11.5,25.6,25.6s-11.5,25.6-25.6,25.6C451.9,477.9,440.5,466.4,440.5,452.3z"/>
	<path id="Shape_9_" class="st0" d="M397.8,452.3c0-14.1-11.5-25.6-25.6-25.6c-14.1,0-25.6,11.5-25.6,25.6s11.5,25.6,25.6,25.6
		C386.3,477.9,397.8,466.4,397.8,452.3z M363.7,452.3c0-4.7,3.8-8.5,8.5-8.5c4.7,0,8.5,3.8,8.5,8.5s-3.8,8.5-8.5,8.5
		C367.5,460.8,363.7,457,363.7,452.3z"/>
	<path id="Shape_10_" class="st0" d="M346.6,307.2c-9.1-0.3-18,3.2-24.4,9.7c-6.5,6.5-10,15.3-9.7,24.4c0,4.7,3.8,8.5,8.5,8.5
		s8.5-3.8,8.5-8.5c-0.3-4.6,1.4-9.1,4.7-12.4c3.3-3.3,7.8-5,12.4-4.7c4.7,0,8.5-3.8,8.5-8.6C355.1,311,351.3,307.2,346.6,307.2
		L346.6,307.2z"/>
	<path id="Shape_11_" class="st0" d="M47.9,426.7c-4.7,0-8.5,3.8-8.5,8.5v17.1c0,4.7,3.8,8.5,8.5,8.5s8.5-3.8,8.5-8.5v-17.1
		C56.5,430.5,52.6,426.7,47.9,426.7z"/>
	<path id="Shape_12_" class="st0" d="M39.4,503.5c0,4.7,3.8,8.5,8.5,8.5s8.5-3.8,8.5-8.5v-17.1c0-4.7-3.8-8.5-8.5-8.5
		s-8.5,3.8-8.5,8.5V503.5z"/>
	<path id="Shape_13_" class="st0" d="M65,477.9h17.1c4.7,0,8.5-3.8,8.5-8.5c0-4.7-3.8-8.5-8.5-8.5H65c-4.7,0-8.5,3.8-8.5,8.5
		C56.5,474,60.3,477.9,65,477.9z"/>
	<path id="Shape_14_" class="st0" d="M30.9,460.8H13.8c-4.7,0-8.5,3.8-8.5,8.5c0,4.7,3.8,8.5,8.5,8.5h17.1c4.7,0,8.5-3.8,8.5-8.5
		C39.4,464.6,35.6,460.8,30.9,460.8z"/>
</g>
</svg>
