<?xml version="1.0" encoding="utf-8"?>
<!-- Generator: Adobe Illustrator 21.1.0, SVG Export Plug-In . SVG Version: 6.00 Build 0)  -->
<svg version="1.1" id="Layer_1" xmlns="http://www.w3.org/2000/svg" xmlns:xlink="http://www.w3.org/1999/xlink" x="0px" y="0px"
	 viewBox="0 0 512 512" style="enable-background:new 0 0 512 512;" xml:space="preserve">
<style type="text/css">
	.st0{fill:#E30016;}
</style>
<g id="_x30_15---Cream-Pot" transform="translate(0 -1)">
	<path id="Shape" class="st0" d="M0,402.1c0,46.2,137.3,51.2,196.3,51.2c73.1,0,132.5-7.1,164.9-19.6c11.8,11.6,27.5,18.6,44,19.6
		c6.9,0,6.7-0.4,51.7-10.5c24.6-5.5,42.6-31,50.6-71.7c7.3-45,5.5-91-5.4-135.3c-23.7-105-80.5-178.7-129.6-167.6l-41.6,9.4
		c-17.5,3.9-31.2,18.2-40.6,39.5c-61.3-16.7-67.9,29-126.9,20.5c-51.6-7.4-52.4-65.9-52.4-68.4c0-3.6-2.3-6.9-5.7-8.1
		c-3.4-1.2-7.3-0.1-9.5,2.8C93.9,66.3,54,118,62,180.2c-46.7,7.4-53.5,16.7-53.5,25.6v29c-5,2.7-8.3,7.9-8.5,13.7L0,402.1z
		 M84.8,234.4c64.2,6.3,128.7,7.2,193.1,2.7c0.9,8.5,2,17.2,3.6,26.1c-56.8,3.3-206.5,5.2-255.8-11.8v-28.5
		C44.8,229,64.7,232.9,84.8,234.4L84.8,234.4z M17.1,402.1V300.1c36,9.8,73.1,15.4,110.4,16.6c3,0.2,6-1.3,7.7-3.8s1.9-5.8,0.5-8.5
		c-1.4-2.7-4.1-4.5-7.1-4.7c-62.4-3.9-94.7-11.3-111.5-17.5v-15.7c51.3,19.7,209.4,17.2,267.7,13.7c10.3,48,30.7,103.1,63.1,140.2
		c-31.6,10.1-85.6,15.8-151.6,15.8C72.7,436.2,17.1,416.2,17.1,402.1L17.1,402.1z M485.4,239.5c10.4,42,12.2,85.6,5.3,128.3
		c-6.5,33.2-20.2,54.4-37.6,58.3c-34.2,7.7-86.2-52.7-109.2-154.7s-1.8-178.9,32.4-186.6c2-0.4,4-0.7,6-0.7
		C416.3,84.2,463.8,143.3,485.4,239.5L485.4,239.5z M334.6,94.2l5.2-1.2c-53.2,80.6-5.8,291.4,76.9,341.3l-5.2,1.2
		c-17.4,3.9-38.9-9.4-59-36.6c-24.5-35.6-41.6-75.8-50.2-118.1c-4-17.8-6.8-35.9-8.4-54.1C287.7,152.5,306.8,100.5,334.6,94.2
		L334.6,94.2z M86.3,118c0.9,39.3,20.2,66.9,56,78.9c4.5,1.5,9.3-0.9,10.8-5.4c1.5-4.5-0.9-9.3-5.4-10.8
		c-36.7-12.2-45.2-42.1-44.3-69.5c10.1,23.6,32,40.1,57.5,43.4c64.6,9.3,71.4-34.3,123.4-21.3c-7.6,28.3-10.2,57.7-7.9,86.9
		c-61.6,4.3-123.5,3.6-185.1-2.2C75.3,186.9,73.5,150.4,86.3,118L86.3,118z M65.3,197c1.7,6.3,3.8,12.5,6.3,18.6
		c-14.6-1.5-28.9-4.8-42.7-9.7C40.6,201.4,52.9,198.4,65.3,197z"/>
	<circle id="Oval" class="st0" cx="162.1" cy="308.2" r="8.5"/>
	<path id="Shape_1_" class="st0" d="M359.6,191c0.5,4.7,4.7,8.1,9.3,7.6c4.7-0.5,8.1-4.7,7.6-9.3c-4.1-40.7,4.1-53.6,9.4-57.7
		c3.9-2.7,8.7-3.3,13.2-1.8c4.4,1.6,9.2-0.5,10.9-4.9c1.7-4.3-0.4-9.2-4.7-11c-9.9-3.7-21-2.2-29.6,3.9
		C361.3,128.8,355.8,153.4,359.6,191L359.6,191z"/>
	<path id="Shape_2_" class="st0" d="M430.9,384.4c9.9,3.7,21,2.2,29.6-3.9c14.5-10.9,20-35.5,16.2-73.1c-0.5-4.7-4.7-8.1-9.3-7.6
		c-4.7,0.5-8.1,4.7-7.6,9.3c4.1,40.7-4.1,53.6-9.4,57.7c-3.8,2.7-8.7,3.3-13.2,1.8c-2.8-1.1-6.1-0.6-8.4,1.3
		c-2.4,1.9-3.6,4.9-3.1,7.9C426.1,380.7,428.1,383.3,430.9,384.4L430.9,384.4z"/>
</g>
</svg>
