<?xml version="1.0" encoding="utf-8"?>
<!-- Generator: Adobe Illustrator 21.1.0, SVG Export Plug-In . SVG Version: 6.00 Build 0)  -->
<svg version="1.1" id="Layer_1" xmlns="http://www.w3.org/2000/svg" xmlns:xlink="http://www.w3.org/1999/xlink" x="0px" y="0px"
	 viewBox="0 0 512 512" style="enable-background:new 0 0 512 512;" xml:space="preserve">
<style type="text/css">
	.st0{fill:#E30016;}
</style>
<g id="_x30_56---Droplett">
	<path id="Shape" class="st0" d="M338.5,328.6c1.9-7,2.8-14.2,2.8-21.4c0-43.8-70.3-146.8-78.3-158.4c-1.7-2.2-4.3-3.5-7-3.5
		c-2.8,0-5.3,1.3-7,3.5c-8,11.6-78.3,114.6-78.3,158.4c0,7.2,1,14.4,2.8,21.4c-82.3,9-173.5,35-173.5,81c0,55.5,131.9,85.3,256,85.3
		s256-29.9,256-85.3C512,363.6,420.8,337.6,338.5,328.6L338.5,328.6z M331.1,347.6c44.6,8.2,61.4,21.3,61.4,27.8
		c0,11.9-46.9,34.1-136.5,34.1s-136.5-22.2-136.5-34.1c0-6.6,16.9-19.6,61.4-27.8c14.9,27.6,43.7,44.8,75.1,44.8
		S316.2,375.2,331.1,347.6z M105.2,364.7c-1.8,3.3-2.8,7-2.8,10.7c0,68.1,307.2,68.1,307.2,0c0-3.8-1-7.4-2.8-10.7
		c21.8,9.1,33.2,19.3,33.2,27.8c0,21.4-70,51.2-184,51.2S72,413.9,72,392.5C72,384,83.4,373.8,105.2,364.7L105.2,364.7z M256,168.8
		c24,36.2,68.3,109,68.3,138.4c0,37.7-30.6,68.3-68.3,68.3c-37.7,0-68.3-30.6-68.3-68.3C187.7,277.8,232,205,256,168.8L256,168.8z
		 M256,477.9c-140.8,0-238.9-36-238.9-68.3c0-12.6,16.4-27.1,47.7-39.5c-6,5.9-9.6,13.9-9.8,22.4c0,44.4,103.6,68.3,201,68.3
		s201-23.9,201-68.3c-0.3-8.5-3.8-16.5-9.8-22.4c31.3,12.4,47.7,26.9,47.7,39.5C494.9,441.9,396.8,477.9,256,477.9L256,477.9z"/>
	<path id="Shape_1_" class="st0" d="M247.5,349.9c4.7,0,8.5-3.8,8.5-8.5s-3.8-8.5-8.5-8.5c-6.9,0.4-13.6-2.2-18.5-7.1
		c-4.9-4.9-7.5-11.6-7.1-18.5c0-4.7-3.8-8.5-8.6-8.5c-4.7,0-8.5,3.8-8.5,8.6c-0.4,11.4,3.9,22.5,12,30.6
		C224.9,345.9,236,350.3,247.5,349.9z"/>
	<path id="Shape_2_" class="st0" d="M290.1,76.8c0-18.9-15.3-34.1-34.1-34.1c-18.9,0-34.1,15.3-34.1,34.1s15.3,34.1,34.1,34.1
		S290.1,95.7,290.1,76.8z M238.9,76.8c0-9.4,7.6-17.1,17.1-17.1c9.4,0,17.1,7.6,17.1,17.1s-7.6,17.1-17.1,17.1
		C246.6,93.9,238.9,86.2,238.9,76.8z"/>
	<path id="Shape_3_" class="st0" d="M187.7,196.3V25.6c0-4.7-3.8-8.5-8.5-8.5s-8.5,3.8-8.5,8.5v170.7c0,4.7,3.8,8.5,8.5,8.5
		S187.7,201,187.7,196.3z"/>
	<path id="Shape_4_" class="st0" d="M145.1,298.7V68.3c0-4.7-3.8-8.5-8.5-8.5s-8.5,3.8-8.5,8.5v230.4c0,4.7,3.8,8.5,8.5,8.5
		S145.1,303.4,145.1,298.7z"/>
	<path id="Shape_5_" class="st0" d="M384,298.7V68.3c0-4.7-3.8-8.5-8.5-8.5c-4.7,0-8.5,3.8-8.5,8.5v230.4c0,4.7,3.8,8.5,8.5,8.5
		C380.2,307.2,384,303.4,384,298.7z"/>
	<path id="Shape_6_" class="st0" d="M341.3,196.3V25.6c0-4.7-3.8-8.5-8.5-8.5s-8.5,3.8-8.5,8.5v170.7c0,4.7,3.8,8.5,8.5,8.5
		S341.3,201,341.3,196.3z"/>
</g>
</svg>
