<?xml version="1.0" encoding="utf-8"?>
<!-- Generator: Adobe Illustrator 21.1.0, SVG Export Plug-In . SVG Version: 6.00 Build 0)  -->
<svg version="1.1" id="Layer_1" xmlns="http://www.w3.org/2000/svg" xmlns:xlink="http://www.w3.org/1999/xlink" x="0px" y="0px"
	 viewBox="0 0 512 512" style="enable-background:new 0 0 512 512;" xml:space="preserve">
<style type="text/css">
	.st0{fill:#E30016;}
</style>
<g id="_x30_11---Eyelash-Gel" transform="translate(0 -1)">
	<path id="Shape" class="st0" d="M256,358.4c23.6,0,42.7-19.1,42.7-42.7c0-23.6-19.1-42.7-42.7-42.7c-23.6,0-42.7,19.1-42.7,42.7
		C213.4,339.2,232.4,358.3,256,358.4z M256,290.1c14.1,0,25.6,11.5,25.6,25.6s-11.5,25.6-25.6,25.6c-14.1,0-25.6-11.5-25.6-25.6
		S241.9,290.1,256,290.1z"/>
	<path id="Shape_1_" class="st0" d="M17.1,197.3c0-4.7-3.8-8.5-8.5-8.5S0,192.6,0,197.3c0,54.8,22.2,89.8,61.8,99.5
		c-19,14.1-37,29.4-53.9,46C2.5,348-0.3,355.3,0,362.7c0.4,7.4,3.9,14.4,9.7,19.1c69.5,56.3,145.8,105.6,238.1,105.6
		c34.9,0.3,69.3-8.2,100-24.7c52.5-28.6,63.9-69.8,151.6-94.9c6.5-1.8,11.4-7.3,12.4-14.1c1-6.7-2-13.4-7.7-17.1
		c-31.5-20.7-74.9-67.2-141.6-94.6c-0.8-0.5-1.7-0.9-2.6-1.1c-35.6-14.4-73.9-20.8-112.2-18.8c-43.1-5.9-43-35.5-43-57.2v-1.9
		c0-4.7-3.8-8.5-8.5-8.5s-8.5,3.8-8.5,8.5c0,25.1,2.3,48.3,23.7,63.6c-6.4,1.2-12.7,2.7-18.9,4.4c-37-2-55.9-22-55.9-59.5
		c0-4.7-3.8-8.5-8.5-8.5s-8.5,3.8-8.5,8.5c0,34.5,14.6,58.7,41.1,69.8c-11.4,4.4-22.5,9.3-33,14.6c-44-7.1-50.7-50.4-50.7-75.9
		c0-4.7-3.8-8.5-8.5-8.5c-4.7,0-8.5,3.8-8.5,8.5c0,22,5,70,46.3,87.5c-8.3,4.8-16.2,9.7-23.8,14.8C28.5,280.5,17.1,235.3,17.1,197.3
		L17.1,197.3z M339.6,447.7c-97.2,53-203.5-0.1-244.6-25.3c-26-16.3-50.9-34.3-74.5-53.9c-2-1.6-3.3-4-3.4-6.6
		c-0.1-2.6,0.9-5.1,2.7-6.9c28.6-28,60.5-52.5,95.1-72.7c-14.3,57.2,9.6,117.1,59.4,148.7s114.2,27.7,159.9-9.6
		s62.2-99.7,41.1-154.8c21.2,10.9,41.3,23.8,60.2,38.4c-10.8,24.6-15.1,51.6-12.5,78.4C393.4,402.6,369.2,431.6,339.6,447.7z
		 M494.7,351.5c-19.3,5.4-37.9,12.9-55.6,22.3c-0.7-19.8,2.8-39.5,10.3-57.9C468,330.7,481.2,341.9,494.7,351.5z M351.7,256
		c44,79.1-12.7,179.1-104.3,179.1c-39.6-0.3-76.6-20.1-98.8-52.9s-26.8-74.5-12.4-111.4c3-1.5,5.9-3,9-4.4
		c0.8,14.4,10.6,26.7,24.4,30.8c13.8,4.1,28.7-1,37.2-12.7c8.5-11.7,8.6-27.4,0.5-39.3C255.5,234.1,305.8,237.9,351.7,256L351.7,256
		z M188.1,250.2c7.6,4.7,10.2,14.5,6.1,22.4c-4.2,7.9-13.8,11.2-21.9,7.5c-8.2-3.7-12.1-13-9-21.4
		C171.4,255.5,179.7,252.7,188.1,250.2z"/>
	<path id="Shape_2_" class="st0" d="M324.3,26.6c-13.4-0.6-24.9,9.7-25.6,23.2v28H135.3c-3.1-11.9-12.4-21.3-24.4-24.4v-9.7
		c0-4.7-3.8-8.5-8.5-8.5c-4.7,0-8.5,3.8-8.5,8.5v8.5H76.8v-8.5c0-4.7-3.8-8.5-8.5-8.5s-8.5,3.8-8.5,8.5v8.5H42.7v-8.5
		c0-4.7-3.8-8.5-8.5-8.5s-8.5,3.8-8.5,8.5v9.7c-15,3.9-25.5,17.4-25.5,32.9s10.5,29.1,25.5,32.9v9.7c0,4.7,3.8,8.5,8.5,8.5
		s8.5-3.8,8.5-8.5v-8.5h17.1v8.5c0,4.7,3.8,8.5,8.5,8.5c4.7,0,8.5-3.8,8.5-8.5v-8.5h17.1v8.5c0,4.7,3.8,8.5,8.5,8.5
		c4.7,0,8.5-3.8,8.5-8.5v-9.7c12-3,21.4-12.4,24.4-24.4h163.3v28c0.7,13.4,12.2,23.8,25.6,23.2c56.1,0,187.7-3.8,187.7-59.7
		C512,37,409.9,26.6,324.3,26.6z M114.5,98.4c-3.2,3.2-7.5,5-12.1,5H34.1c-9.4,0-17.1-7.6-17.1-17.1s7.6-17.1,17.1-17.1h68.3
		c6.9,0,13.1,4.2,15.7,10.5C120.8,86.2,119.3,93.5,114.5,98.4z M349.9,128.6V86.3c0-4.7-3.8-8.5-8.5-8.5s-8.5,3.8-8.5,8.5v42.6
		c-2.9,0-5.6,0.1-8.5,0.1c-4.6,0-8.5-2.8-8.5-6.1V49.8c0-3.3,3.9-6.1,8.5-6.1c105.3,0,170.7,16.3,170.7,42.7
		C494.9,110.4,440,126.1,349.9,128.6z"/>
</g>
</svg>
