<?xml version="1.0" encoding="utf-8"?>
<!-- Generator: Adobe Illustrator 21.1.0, SVG Export Plug-In . SVG Version: 6.00 Build 0)  -->
<svg version="1.1" id="Capa_1" xmlns="http://www.w3.org/2000/svg" xmlns:xlink="http://www.w3.org/1999/xlink" x="0px" y="0px"
	 viewBox="0 0 512 512" style="enable-background:new 0 0 512 512;" xml:space="preserve">
<style type="text/css">
	.st0{fill:#FFFFFF;}
</style>
<g>
	<g>
		<path class="st0" d="M505.3,6.7C505.3,6.6,505.3,6.6,505.3,6.7C501,2.4,495.2,0,489.2,0h0C484,0,479,1.8,475,5
			c-54.4,43.5-109.1,88.4-162.4,133.4c-13,11-26,22-38.9,33.1L125.6,23.4c-14.6-14.6-38.4-14.6-53,0L2.2,93.7
			c-2.9,2.9-2.9,7.7,0,10.6c2.9,2.9,7.7,2.9,10.6,0l49.1-49.1L72.7,66l-49.1,49.1c-2.9,2.9-2.9,7.7,0,10.6c1.5,1.5,3.4,2.2,5.3,2.2
			s3.8-0.7,5.3-2.2l49.1-49.1L94,87.3l-49.1,49.1c-2.9,2.9-2.9,7.7,0,10.6c1.5,1.5,3.4,2.2,5.3,2.2s3.8-0.7,5.3-2.2l49.1-49.1
			l10.7,10.7l-49.1,49.1c-2.9,2.9-2.9,7.7,0,10.6c1.5,1.5,3.4,2.2,5.3,2.2s3.8-0.7,5.3-2.2l49.1-49.1l10.7,10.7l-49.1,49.1
			c-2.9,2.9-2.9,7.7,0,10.6c1.5,1.5,3.4,2.2,5.3,2.2s3.8-0.7,5.3-2.2l49.1-49.1l10.7,10.7l-49.1,49.1c-2.9,2.9-2.9,7.7,0,10.6
			c1.5,1.5,3.4,2.2,5.3,2.2s3.8-0.7,5.3-2.2l49.1-49.1l10.7,10.7l-49.1,49.1c-2.9,2.9-2.9,7.7,0,10.6c1.5,1.5,3.4,2.2,5.3,2.2
			s3.8-0.7,5.3-2.2l49.1-49.1l10.7,10.7l-49.1,49.1c-2.9,2.9-2.9,7.7,0,10.6c1.5,1.5,3.4,2.2,5.3,2.2c1.9,0,3.8-0.7,5.3-2.2
			l49.1-49.1l11.1,11.1c-23,20.1-45.9,40.2-68.6,60.4c0,0,0,0,0,0c-6.7,6-14.1,12.9-21.3,19.4c-4.4,3.2-3.6,8.9-1.4,11.1
			c0,0,0,0,0,0c7.2,8.7,11.2,19.9,11.2,31.4c0,13.5-5.2,26.1-14.6,35.5c-0.1,0.1-22.5,22.5-22.6,22.6C72.5,429.6,15,406.8,15,359.5
			c0-28.7,23.2-52.4,52.5-52.4c15.9,0,30.8,7.1,40.8,19.5c2.7,3.3,7.7,3.7,10.9,0.8c0,0,0.1-0.1,0.1-0.1l0.1-0.1
			c3.5-3.2,3.3-8.8-0.7-11.7c-12.8-14.9-31.5-23.5-51.2-23.5h-0.1C29.9,292.1,0,322.7,0,359.5c0,27.8,17,52.3,42.1,62.5
			c14.9,6,31.3,6.5,46,1.7C74,467.6,106.8,512,152.3,512h0.1c37.2,0,67.5-30.1,67.5-67.5c0-17.8-6.8-34.5-19.2-47.2
			c0,0,15.3-17.4,15.3-17.4c27-30.1,53.7-60.3,80.2-90.5l11.3,11.3l-49.1,49.1c-2.9,2.9-2.9,7.7,0,10.6c1.5,1.5,3.4,2.2,5.3,2.2
			c1.9,0,3.8-0.7,5.3-2.2l49.1-49.1l10.7,10.7l-49.1,49.1c-2.9,2.9-2.9,7.7,0,10.6c1.5,1.5,3.4,2.2,5.3,2.2c1.9,0,3.8-0.7,5.3-2.2
			l49.1-49.1l10.7,10.7L301,392.5c-2.9,2.9-2.9,7.7,0,10.6c1.5,1.5,3.4,2.2,5.3,2.2c1.9,0,3.8-0.7,5.3-2.2l49.1-49.1l10.7,10.7
			l-49.1,49.1c-2.9,2.9-2.9,7.7,0,10.6c1.5,1.5,3.4,2.2,5.3,2.2c1.9,0,3.8-0.7,5.3-2.2l49.1-49.1l10.7,10.7l-49.1,49.1
			c-2.9,2.9-2.9,7.7,0,10.6c1.5,1.5,3.4,2.2,5.3,2.2c1.9,0,3.8-0.7,5.3-2.2l49.1-49.1l10.7,10.7L365,456.5c-2.9,2.9-2.9,7.7,0,10.6
			c1.5,1.5,3.4,2.2,5.3,2.2c1.9,0,3.8-0.7,5.3-2.2l49.1-49.1l10.7,10.7l-49.1,49.1c-2.9,2.9-2.9,7.7,0,10.6c1.5,1.5,3.4,2.2,5.3,2.2
			c1.9,0,3.8-0.7,5.3-2.2l49.1-49.1l10.7,10.7l-49.1,49.1c-2.9,2.9-2.9,7.7,0,10.6c1.5,1.5,3.4,2.2,5.3,2.2c1.9,0,3.8-0.7,5.3-2.2
			l54.4-54.4c0,0,0,0,0,0c0,0,0,0,0,0l15.9-15.9c7.1-7.1,11-16.5,11-26.5s-3.9-19.4-11-26.5L340.4,238.2
			C397.9,171.1,453.6,103.8,507,37C514.3,27.9,513.5,14.9,505.3,6.7z M72.5,44.6L83.1,34c8.8-8.8,23-8.8,31.8,0l147.3,147.3
			c-9.5,8.2-19,16.3-28.5,24.6L72.5,44.6z M478,397c4.3,4.2,6.6,9.9,6.6,15.9s-2.3,11.7-6.6,15.9l-10.6,10.6
			c-5-5-150.8-150.8-161.4-161.4c8.2-9.5,16.4-19,24.6-28.4L478,397z M209,365.3c-3.6-2.8-13.3-7.6-14.9-21.3
			c-0.4-3.8-3.6-6.6-7.4-6.6c-4.5,0-8,3.9-7.5,8.4c0,0,0,0,0,0c1.4,12.2,8.1,23,18.2,29.6c0.5,0.4,1.1,0.7,1.6,1.1
			c-5.2,5.9-9.5,10.9-14.4,16.4c-1.4,1.5-2.1,3.6-1.9,5.6c0.1,2,1.2,4,2.8,5.3c12.6,10.3,19.5,25.1,19.5,40.8
			c0,28.9-23.3,52.4-52.5,52.5c-28.9,0-52.5-23.3-52.5-52.5c0-23.7,15-36.4,16.2-38.1l22.3-22.3c12.3-12.3,19-28.8,19-46.1
			c0-12.6-3.6-24.9-10.4-35.3c5.9-5.4,11-10.1,16.9-15.4l0,0C326.4,142.3,482.4,17.7,485.4,16c-2,2-294.6,294.5-296,296
			c-2.8,3.1-2.5,7.9,0.6,10.6c3.1,2.8,7.9,2.4,10.6-0.6c0.9-1,293.2-293.2,295.4-295.4C495.4,27.7,374.6,180.7,209,365.3z"/>
	</g>
</g>
<g>
	<g>
		<path class="st0" d="M94,333.1c-23.7-23.7-64-6.6-64,26.5c0,10,3.9,19.4,11,26.5c7.3,7.3,16.9,11,26.5,11c9.6,0,19.2-3.7,26.5-11
			C108.7,371.5,108.7,347.7,94,333.1z M83.4,375.5c-8.8,8.8-23,8.8-31.8,0c-14-14-4.2-38.4,15.9-38.4
			C87.7,337.1,97.4,361.5,83.4,375.5z"/>
	</g>
</g>
<g>
	<g>
		<path class="st0" d="M152.4,407.1c-15.4,0-28.7,8.9-34.6,23.1c-5.9,14.3-2.8,30,8.1,40.9c7.2,7.2,16.6,11,26.2,11
			c4.9,0,9.8-1,14.6-3c14.3-5.9,23.2-19.2,23.2-34.6C189.9,423.9,173,407.1,152.4,407.1z M160.9,465.3c-6.7,2.8-16.7,3-24.5-4.8
			c-7.8-7.8-7.6-17.8-4.8-24.5c2.8-6.7,9.7-13.8,20.7-13.8c12.4,0,22.5,10.1,22.5,22.5C174.9,455.6,167.7,462.5,160.9,465.3z"/>
	</g>
</g>
</svg>
