<?xml version="1.0" encoding="utf-8"?>
<!-- Generator: Adobe Illustrator 21.1.0, SVG Export Plug-In . SVG Version: 6.00 Build 0)  -->
<svg version="1.1" id="Layer_1" xmlns="http://www.w3.org/2000/svg" xmlns:xlink="http://www.w3.org/1999/xlink" x="0px" y="0px"
	 viewBox="0 0 512 512" style="enable-background:new 0 0 512 512;" xml:space="preserve">
<style type="text/css">
	.st0{fill:#FFFFFF;}
</style>
<g>
	<g>
		<path class="st0" d="M90.9,296.9c-0.2,0-0.5,0-0.7,0c-4.1-0.4-7.2-4-6.8-8.2c3.6-39,57.4-58.2,67.9-60.6
			c49.1-17.9,67.6-31.6,53.7-93.7c-0.9-4,1.6-8.1,5.7-9c4-0.9,8.1,1.6,9,5.7c7.9,35.1,6.1,58.4-5.8,75.7
			c-11.2,16.2-30.4,25.7-57.8,35.6c-0.4,0.1-0.8,0.3-1.2,0.3c-9.3,1.7-53.8,19.4-56.4,47.4C98,294,94.7,296.9,90.9,296.9L90.9,296.9
			z"/>
	</g>
	<g>
		<path class="st0" d="M216,444.5c-10.5,0-21-1.9-29.2-5.7c-3.8-1.8-5.4-6.2-3.6-10c1.8-3.8,6.2-5.4,10-3.6
			c12.4,5.8,33.4,5.8,45.8,0c3.8-1.8,8.2-0.1,10,3.6c1.8,3.8,0.1,8.2-3.6,10C237.1,442.6,226.5,444.5,216,444.5L216,444.5z"/>
	</g>
	<g>
		<path class="st0" d="M153.9,332.5c-8.5,0-17-0.9-23.6-2.7c-4-1.1-6.4-5.2-5.3-9.2c1.1-4,5.2-6.3,9.2-5.3c10.6,2.9,28.6,2.9,39.3,0
			c4-1.1,8.1,1.3,9.2,5.3c1.1,4-1.3,8.1-5.3,9.2C170.9,331.6,162.4,332.5,153.9,332.5z"/>
	</g>
	<g>
		<path class="st0" d="M279.1,334.5c-8.5,0-17-0.9-23.6-2.7c-4-1.1-6.4-5.2-5.3-9.2c1.1-4,5.2-6.3,9.2-5.3c10.7,2.9,28.7,2.9,39.3,0
			c4-1.1,8.1,1.3,9.2,5.3c1.1,4-1.3,8.1-5.3,9.2C296.1,333.6,287.6,334.5,279.1,334.5L279.1,334.5z"/>
	</g>
	<path class="st0" d="M492.3,0.9c-3.6-2-8.2-0.6-10.2,3.1L420,119.7l-33.7-18.1c-4.8-2.6-10.3-2.8-15.1-1.2
		C332.3,57.5,277.5,33,219.9,33c-53.5,0-104.1,20.7-142.6,58.4c-3,2.9-3,7.6-0.1,10.6c2.9,3,7.6,3,10.6,0.1
		C123.4,67.2,170.3,48,219.9,48C273.2,48,324,70.7,360,110.5l-8,15c-3.5,6.5-2.8,14.1,1.1,19.7l-35.9,44.2
		c-1.4,1.7-5.6,6.9-4.4,13.3c0.5,2.7,2.2,6.4,7.4,9.2l88.7,47.5v42.5c0,43.5-2.2,78-12.9,105.1c-11.5,28.9-32.3,47.2-65.5,57.5
		c-8,2.5-11.6,1.8-12.4,1c-1-1-2.2-4.6,1.1-17.8c9.9-11.9,18.2-24.3,23.9-36.1c1.8-3.7,0.2-8.2-3.5-10c-3.7-1.8-8.2-0.2-10,3.5
		c-5.5,11.4-13.2,22.9-22.3,33.6c-0.4,0.4-0.8,0.9-1.2,1.4C279,471.7,240.6,497,214.9,497c-0.7,0-1.4,0-2.1-0.1c-0.3,0-0.6,0-0.9,0
		c-18.6,1.1-47.1-12.8-72.2-34.1c-2.9-1.9-13.7-11.3-17.8-17c-10.5-17.5-10.1-34.8-8.3-60.7c4-56.2,47.5-79.7,89.6-102.3
		c22.6-12.2,44.3-23.8,60.2-40c20,34.3,55.1,49.1,85.3,49.2l0,7.2c0,19.9,0,25.9-0.2,29.5c0,0.1,0,0.3,0,0.4c0,12.6-2.1,27-6.1,41.6
		c-1.1,4,1.3,8.1,5.3,9.2c0.7,0.2,1.3,0.3,2,0.3c3.3,0,6.3-2.2,7.2-5.5c4.3-15.8,6.6-31.5,6.6-45.3c0.2-4,0.2-9.8,0.2-30.2l0-15
		c0-2.1-0.9-4.1-2.4-5.5c-1.6-1.4-3.6-2.1-5.7-1.9c-28.3,2.5-64-11-81.9-46.3c2.1-3,4-6.2,5.7-9.5c0.1-0.2,0.1-0.3,0.2-0.5
		c0,0,0-0.1,0.1-0.1c0,0,0-0.1,0-0.1s0-0.1,0-0.1c11.1-27.7,5.8-64.8-14-99.3c-2.1-3.6-6.6-4.8-10.2-2.8c-3.6,2.1-4.8,6.6-2.8,10.2
		c17.5,30.5,22.4,62.7,13.1,86.1c-12.5,24.5-40.3,39.4-69.7,55.3c-43.6,23.4-92.9,50-97.5,114.5c-2,28.2-2.3,48.5,10.6,69.8
		c0.1,0.2,6.9,8.7,10.1,11.4c-8.7-3.1-20.4-8.9-32.8-18.6c-20.9-16.4-55.9-54.4-55.9-125.1v-85c0-38.9,12-76.3,34.6-108.3
		c2.4-3.4,1.6-8.1-1.8-10.5c-3.4-2.4-8.1-1.6-10.5,1.8c-24.5,34.5-37.4,74.9-37.4,116.9v85c0,45.4,13.7,85.4,39.6,115.8
		c21.5,25.2,47.7,39.2,64.9,43.8c4.5,1.2,8.4,1.8,11.7,1.8c2.9,0,5.3-0.5,7.2-1.4c22.4,17.1,48.5,30.4,70.6,30.4
		c0.9,0,1.7,0,2.6-0.1c20,1,46.4-10.3,72.6-31c6-4.8,11.9-9.9,17.4-15.3c0.7,4,2.2,7.7,5.3,10.6c3.4,3.3,7.9,4.9,13.6,4.9
		c4,0,8.5-0.8,13.7-2.4c82.3-25.5,89-95.2,89-176.9v-40.1c5.7-2.6,7.6-8.7,8.2-10.8l17-54.4c0.1,0,0.2,0,0.3,0
		c1.8,0,3.7-0.3,5.5-0.8c4.9-1.5,8.9-4.7,11.3-9.2l8.6-16c4.9-9.2,1.4-20.7-7.8-25.7c0,0,0,0,0,0l-33.8-18.1L495.4,11
		C497.3,7.4,495.9,2.8,492.3,0.9L492.3,0.9z M417.8,246.6c-0.1,0.2-0.1,0.4-0.2,0.5l-18.4-9.9l6.8-23.7c1.1-4-1.1-8.1-5.1-9.3
		c-4-1.1-8.1,1.1-9.3,5.1l-6,20.6L361.6,217l13.9-16.4c2.7-3.2,2.3-7.9-0.9-10.6c-3.2-2.7-7.9-2.3-10.6,0.9l-16,18.8l-19.6-10.5
		c0.1-0.1,0.2-0.3,0.4-0.4l36.4-44.8l69.8,37.4L417.8,246.6z M461.6,163.5l-8.6,16c-0.7,1.3-1.8,1.8-2.4,1.9c-0.6,0.2-1.8,0.4-3-0.3
		c0,0,0,0,0,0l-76.6-41.1l-4.1-2.2c-1.9-1-2.6-3.5-1.6-5.4l8.6-16c0.7-1.3,2.1-2.1,3.6-2.1c0.6,0,1.3,0.1,1.8,0.5l80.7,43.3
		C461.9,159.2,462.6,161.6,461.6,163.5L461.6,163.5z"/>
</g>
</svg>
