<?xml version="1.0" encoding="utf-8"?>
<!-- Generator: Adobe Illustrator 21.1.0, SVG Export Plug-In . SVG Version: 6.00 Build 0)  -->
<svg version="1.1" id="Layer_1" xmlns="http://www.w3.org/2000/svg" xmlns:xlink="http://www.w3.org/1999/xlink" x="0px" y="0px"
	 viewBox="0 0 18 15" style="enable-background:new 0 0 18 15;" xml:space="preserve">
<style type="text/css">
	.st0{fill:#E30016;}
</style>
<path class="st0" d="M17.7,7.3l-1.8-1.8v0l-5-5c-0.1-0.1-0.3-0.1-0.4,0L8.8,2.3c-0.1,0.1-0.1,0.3,0,0.4l3.4,3.4H0.5
	c-0.1,0-0.2,0.1-0.2,0.2v2.3c0,0.1,0.1,0.2,0.2,0.2h11.8l-3.4,3.4c-0.1,0.1-0.1,0.3,0,0.4l1.8,1.8c0.1,0.1,0.3,0.1,0.4,0l5-5
	l1.8-1.8C17.8,7.6,17.8,7.4,17.7,7.3z"/>
</svg>
