<?xml version="1.0" encoding="utf-8"?>
<!-- Generator: Adobe Illustrator 21.1.0, SVG Export Plug-In . SVG Version: 6.00 Build 0)  -->
<svg version="1.1" id="Layer_1" xmlns="http://www.w3.org/2000/svg" xmlns:xlink="http://www.w3.org/1999/xlink" x="0px" y="0px"
	 viewBox="0 0 38 12" style="enable-background:new 0 0 38 12;" xml:space="preserve">
<style type="text/css">
	.st0{fill:#FFFFFF;}
</style>
<path class="st0" d="M0.5,6.8l5,4.9c0.4,0.4,1,0.4,1.4,0s0.4-1,0-1.4L3.6,7h33.3c0.6,0,1-0.4,1-1s-0.4-1-1-1H3.6l3.2-3.2
	c0.4-0.4,0.4-1,0-1.4C6.6,0.1,6.4,0.1,6.1,0.1c-0.3,0-0.5,0.1-0.7,0.3l-5,5C0.2,5.6,0.1,5.8,0.1,6.1C0.3,6.3,0.4,6.5,0.5,6.8z"/>
</svg>
