<?xml version="1.0" encoding="utf-8"?>
<!-- Generator: Adobe Illustrator 21.1.0, SVG Export Plug-In . SVG Version: 6.00 Build 0)  -->
<svg version="1.1" id="Layer_1" xmlns="http://www.w3.org/2000/svg" xmlns:xlink="http://www.w3.org/1999/xlink" x="0px" y="0px"
	 viewBox="0 0 38 12" style="enable-background:new 0 0 38 12;" xml:space="preserve">
<style type="text/css">
	.st0{fill:#FFFFFF;}
</style>
<path class="st0" d="M37.5,6.8l-5,4.9c-0.4,0.4-1,0.4-1.4,0s-0.4-1,0-1.4L34.4,7H1.1c-0.6,0-1-0.4-1-1s0.4-1,1-1h33.2l-3.2-3.2
	c-0.4-0.4-0.4-1,0-1.4c0.2-0.2,0.5-0.3,0.7-0.3c0.3,0,0.5,0.1,0.7,0.3l5,5c0.2,0.2,0.3,0.4,0.3,0.7C37.8,6.3,37.7,6.5,37.5,6.8z"/>
</svg>
